<svg width="1329" height="284" viewBox="0 0 1329 284" fill="none" xmlns="http://www.w3.org/2000/svg">
<rect width="1328.09" height="283.213" fill="#0C0C0C"/>
<path d="M80 223.86V56H98.262L207.594 171.198V56H220.329V223.86H201.827L92.7354 108.427V223.86H80ZM207.594 211.4V188.36L92.7354 68.4602V91.7349L207.594 211.4Z" fill="white"/>
<path d="M1192.76 227.213C1180.63 227.213 1171.13 224.898 1164.26 220.267C1157.55 215.636 1152.68 210.367 1149.65 204.459H1146.3V223.86H1127.85V56.1947H1146.78V125.177H1150.13C1152.05 121.504 1154.76 118.071 1158.27 114.878C1161.79 111.524 1166.34 108.81 1171.93 106.734C1177.67 104.498 1184.62 103.38 1192.76 103.38C1202.98 103.38 1212.24 105.856 1220.55 110.806C1229.01 115.596 1235.72 122.542 1240.67 131.644C1245.62 140.586 1248.09 151.285 1248.09 163.74V166.854C1248.09 179.309 1245.54 190.087 1240.43 199.189C1235.48 208.291 1228.77 215.237 1220.31 220.027C1212.01 224.818 1202.82 227.213 1192.76 227.213ZM1187.73 210.447C1199.87 210.447 1209.69 206.614 1217.2 198.95C1224.86 191.125 1228.69 180.267 1228.69 166.375V164.219C1228.69 150.327 1224.86 139.548 1217.2 131.884C1209.69 124.059 1199.87 120.147 1187.73 120.147C1175.76 120.147 1165.86 124.059 1158.03 131.884C1150.37 139.548 1146.54 150.327 1146.54 164.219V166.375C1146.54 180.267 1150.37 191.125 1158.03 198.95C1165.86 206.614 1175.76 210.447 1187.73 210.447Z" fill="white"/>
<path d="M1039.76 227.213C1027.94 227.213 1017.56 224.738 1008.62 219.788C999.679 214.678 992.733 207.572 987.783 198.471C982.833 189.369 980.357 178.83 980.357 166.854V163.979C980.357 151.844 982.833 141.225 987.783 132.123C992.733 123.021 999.599 115.995 1008.38 111.045C1017.16 105.935 1027.22 103.38 1038.56 103.38C1049.58 103.38 1059.32 105.776 1067.78 110.566C1076.25 115.197 1082.87 121.903 1087.66 130.686C1092.45 139.468 1094.85 149.768 1094.85 161.584V170.207H999.28C999.759 182.822 1003.83 192.722 1011.5 199.908C1019.16 206.934 1028.74 210.447 1040.24 210.447C1050.3 210.447 1058.04 208.131 1063.47 203.501C1068.9 198.87 1073.05 193.361 1075.93 186.974L1092.21 194.878C1089.82 199.828 1086.47 204.778 1082.15 209.728C1078 214.678 1072.49 218.83 1065.63 222.183C1058.92 225.537 1050.3 227.213 1039.76 227.213ZM999.519 154.638H1075.69C1075.05 143.78 1071.3 135.317 1064.43 129.249C1057.72 123.181 1049.1 120.147 1038.56 120.147C1027.86 120.147 1019.08 123.181 1012.21 129.249C1005.35 135.317 1001.12 143.78 999.519 154.638Z" fill="white"/>
<path d="M796.087 223.86L768.781 56.1947H788.901L812.614 210.926H815.967L846.865 56.1947H882.794L913.452 210.926H916.806L940.518 56.1947H960.638L933.333 223.86H897.404L866.506 68.1708H863.153L832.255 223.86H796.087Z" fill="white"/>
<path d="M685.868 227.213C674.051 227.213 663.592 224.738 654.49 219.788C645.548 214.838 638.522 207.892 633.412 198.95C628.462 189.848 625.987 179.149 625.987 166.854V163.74C625.987 151.604 628.462 140.985 633.412 131.884C638.522 122.782 645.548 115.756 654.49 110.806C663.592 105.856 674.051 103.38 685.868 103.38C697.684 103.38 708.063 105.856 717.005 110.806C726.107 115.756 733.133 122.782 738.083 131.884C743.193 140.985 745.748 151.604 745.748 163.74V166.854C745.748 179.149 743.193 189.848 738.083 198.95C733.133 207.892 726.107 214.838 717.005 219.788C708.063 224.738 697.684 227.213 685.868 227.213ZM685.868 210.207C698.323 210.207 708.223 206.295 715.568 198.471C723.073 190.487 726.826 179.788 726.826 166.375V164.219C726.826 150.806 723.073 140.187 715.568 132.363C708.223 124.379 698.323 120.387 685.868 120.387C673.572 120.387 663.672 124.379 656.167 132.363C648.662 140.187 644.91 150.806 644.91 164.219V166.375C644.91 179.788 648.662 190.487 656.167 198.471C663.672 206.295 673.572 210.207 685.868 210.207Z" fill="white"/>
<path d="M545.657 223.86V106.734H564.1V121.105H567.454C569.53 115.995 572.723 112.243 577.035 109.848C581.346 107.452 587.015 106.255 594.041 106.255H607.933V123.5H592.843C584.38 123.5 577.514 125.896 572.244 130.686C567.134 135.317 564.579 142.582 564.579 152.482V223.86H545.657Z" fill="white"/>
<path d="M443.788 226.016C435.325 226.016 427.501 224.179 420.315 220.507C413.289 216.834 407.7 211.405 403.549 204.219C399.557 196.874 397.561 188.011 397.561 177.632V106.734H416.483V176.195C416.483 187.852 419.357 196.315 425.106 201.584C431.014 206.854 438.918 209.489 448.818 209.489C459.996 209.489 469.178 205.816 476.363 198.471C483.549 191.125 487.142 180.187 487.142 165.656V106.734H506.064V223.86H487.621V203.98H484.267C481.712 209.568 477.321 214.678 471.094 219.309C464.866 223.78 455.764 226.016 443.788 226.016Z" fill="white"/>
<path d="M310.902 227.213C299.086 227.213 288.707 224.738 279.765 219.788C270.822 214.678 263.876 207.572 258.926 198.471C253.976 189.369 251.501 178.83 251.501 166.854V163.979C251.501 151.844 253.976 141.225 258.926 132.123C263.876 123.021 270.743 115.995 279.525 111.045C288.307 105.935 298.367 103.38 309.705 103.38C320.723 103.38 330.463 105.776 338.926 110.566C347.389 115.197 354.016 121.903 358.807 130.686C363.597 139.468 365.992 149.768 365.992 161.584V170.207H270.423C270.902 182.822 274.974 192.722 282.639 199.908C290.303 206.934 299.884 210.447 311.381 210.447C321.441 210.447 329.186 208.131 334.615 203.501C340.044 198.87 344.196 193.361 347.07 186.974L363.358 194.878C360.962 199.828 357.609 204.778 353.298 209.728C349.146 214.678 343.637 218.83 336.771 222.183C330.064 225.537 321.441 227.213 310.902 227.213ZM270.663 154.638H346.831C346.192 143.78 342.439 135.317 335.573 129.249C328.866 123.181 320.244 120.147 309.705 120.147C299.006 120.147 290.224 123.181 283.357 129.249C276.491 135.317 272.26 143.78 270.663 154.638Z" fill="white"/>
</svg>
