<svg width="532" height="260" viewBox="0 0 532 260" fill="none" xmlns="http://www.w3.org/2000/svg">
<path d="M188.307 147.622C198.857 147.622 205.186 139.966 205.186 130.858C205.186 121.816 198.857 114.16 188.307 114.16C177.824 114.16 171.494 121.816 171.494 130.858C171.494 139.966 177.824 147.622 188.307 147.622ZM188.307 140.164C183.099 140.164 180.197 135.874 180.197 130.858C180.197 125.908 183.099 121.618 188.307 121.618C193.516 121.618 196.483 125.908 196.483 130.858C196.483 135.874 193.516 140.164 188.307 140.164Z" fill="#6344DF"/>
<path d="M211.399 146.83H219.772V125.776C221.157 123.73 224.849 122.212 227.618 122.212C228.542 122.212 229.333 122.278 229.926 122.41V114.226C225.97 114.226 222.014 116.47 219.772 119.308V114.952H211.399V146.83Z" fill="#6344DF"/>
<path d="M239.312 110.266C242.081 110.266 244.323 108.022 244.323 105.25C244.323 102.478 242.081 100.234 239.312 100.234C236.609 100.234 234.301 102.478 234.301 105.25C234.301 108.022 236.609 110.266 239.312 110.266ZM235.158 146.83H243.532V114.952H235.158V146.83Z" fill="#6344DF"/>
<path d="M251.175 155.014C255.132 158.512 259.417 159.766 264.89 159.766C272.736 159.766 282.099 156.796 282.099 144.652V114.952H273.659V119.044C271.088 115.81 267.659 114.16 263.835 114.16C255.791 114.16 249.791 119.968 249.791 130.396C249.791 141.022 255.857 146.632 263.835 146.632C267.725 146.632 271.153 144.784 273.659 141.616V144.85C273.659 151.12 268.912 152.902 264.89 152.902C260.868 152.902 257.505 151.78 254.934 148.942L251.175 155.014ZM273.659 135.544C272.274 137.59 269.241 139.174 266.472 139.174C261.725 139.174 258.428 135.874 258.428 130.396C258.428 124.918 261.725 121.618 266.472 121.618C269.241 121.618 272.274 123.136 273.659 125.248V135.544Z" fill="#6344DF"/>
<path d="M294.558 110.266C297.327 110.266 299.568 108.022 299.568 105.25C299.568 102.478 297.327 100.234 294.558 100.234C291.854 100.234 289.547 102.478 289.547 105.25C289.547 108.022 291.854 110.266 294.558 110.266ZM290.404 146.83H298.777V114.952H290.404V146.83Z" fill="#6344DF"/>
<path d="M328.575 146.83H336.948V124.324C336.948 118.12 333.586 114.16 326.597 114.16C321.388 114.16 317.498 116.668 315.454 119.11V114.952H307.08V146.83H315.454V125.38C316.839 123.466 319.41 121.618 322.707 121.618C326.267 121.618 328.575 123.136 328.575 127.558V146.83Z" fill="#6344DF"/>
<path d="M355.944 147.622C359.439 147.622 361.68 146.698 362.933 145.576L361.153 139.24C360.691 139.702 359.505 140.164 358.252 140.164C356.406 140.164 355.351 138.646 355.351 136.666V122.278H361.812V114.952H355.351V106.24H346.911V114.952H341.636V122.278H346.911V138.91C346.911 144.586 350.076 147.622 355.944 147.622Z" fill="#6344DF"/>
<path d="M367.541 146.83H375.915V125.776C377.3 123.73 380.992 122.212 383.761 122.212C384.684 122.212 385.475 122.278 386.069 122.41V114.226C382.113 114.226 378.157 116.47 375.915 119.308V114.952H367.541V146.83Z" fill="#6344DF"/>
<path d="M413.191 146.83H421.63V114.952H413.191V119.044C410.685 115.81 407.125 114.16 403.367 114.16C395.257 114.16 389.257 120.496 389.257 130.924C389.257 141.55 395.323 147.622 403.367 147.622C407.191 147.622 410.685 145.906 413.191 142.804V146.83ZM413.191 136.534C411.74 138.646 408.773 140.164 405.938 140.164C401.191 140.164 397.894 136.402 397.894 130.924C397.894 125.38 401.191 121.684 405.938 121.684C408.773 121.684 411.74 123.202 413.191 125.314V136.534Z" fill="#6344DF"/>
<path d="M434.088 110.266C436.857 110.266 439.099 108.022 439.099 105.25C439.099 102.478 436.857 100.234 434.088 100.234C431.385 100.234 429.077 102.478 429.077 105.25C429.077 108.022 431.385 110.266 434.088 110.266ZM429.934 146.83H438.308V114.952H429.934V146.83Z" fill="#6344DF"/>
<path d="M455.578 147.622C459.006 147.622 461.248 146.698 462.501 145.576L460.721 139.24C460.325 139.702 459.138 140.164 457.885 140.164C456.039 140.164 454.984 138.646 454.984 136.666V102.808H446.611V138.91C446.611 144.586 449.71 147.622 455.578 147.622Z" fill="#6344DF"/>
<path fill-rule="evenodd" clip-rule="evenodd" d="M109.956 107.884C97.7549 107.884 87.8624 117.785 87.8624 130C87.8624 142.213 97.7549 152.114 109.956 152.114C116.738 152.114 122.805 149.054 126.857 144.239L143.583 158.332C135.52 167.911 123.449 174 109.956 174C85.679 174 66 154.3 66 130C66 105.699 85.679 86 109.956 86V107.884ZM147.937 152.156L129.045 141.136C129.69 140.031 130.242 138.865 130.69 137.649L151.21 145.22C150.319 147.64 149.22 149.958 147.937 152.156ZM132.048 130H153.912C153.912 127.393 153.684 124.84 153.25 122.358L131.715 126.159C131.933 127.407 132.048 128.69 132.048 130ZM143.743 101.858L126.937 115.855C126.114 114.866 125.206 113.951 124.225 113.119L138.346 96.413C140.299 98.0683 142.105 99.8897 143.743 101.858Z" fill="#6344DF"/>
</svg>
